<mxfile host="65bd71144e">
    <diagram id="JAQaUBbTIMKV8XyVQoZV" name="PÃ¡gina-1">
        <mxGraphModel dx="273" dy="163" grid="1" gridSize="10" guides="1" tooltips="1" connect="1" arrows="1" fold="1" page="1" pageScale="1" pageWidth="827" pageHeight="1169" math="0" shadow="0">
            <root>
                <mxCell id="0"/>
                <mxCell id="1" parent="0"/>
                <mxCell id="3" value="User" style="swimlane;fontStyle=0;childLayout=stackLayout;horizontal=1;startSize=26;fillColor=none;horizontalStack=0;resizeParent=1;resizeParentMax=0;resizeLast=0;collapsible=1;marginBottom=0;strokeWidth=2;" parent="1" vertex="1">
                    <mxGeometry x="10" y="10" width="100" height="86" as="geometry"/>
                </mxCell>
                <mxCell id="10" value="&lt;div&gt;&lt;font style=&quot;font-size: 12px&quot;&gt;&amp;nbsp;- id: Long&lt;br&gt;&lt;/font&gt;&lt;/div&gt;&lt;div&gt;&lt;font style=&quot;font-size: 12px&quot;&gt;&amp;nbsp;- name: String&lt;/font&gt;&lt;/div&gt;&lt;div&gt;&lt;font style=&quot;font-size: 12px&quot;&gt;&amp;nbsp;- cpf: String&lt;/font&gt;&lt;/div&gt;&lt;div&gt;&lt;font style=&quot;font-size: 12px&quot;&gt;&amp;nbsp;- senha: String&lt;/font&gt;&lt;/div&gt;" style="text;html=1;align=left;verticalAlign=middle;resizable=0;points=[];autosize=1;strokeColor=none;fillColor=none;strokeWidth=2;" parent="3" vertex="1">
                    <mxGeometry y="26" width="100" height="60" as="geometry"/>
                </mxCell>
                <mxCell id="36" value="Movie" style="swimlane;fontStyle=0;childLayout=stackLayout;horizontal=1;startSize=26;fillColor=none;horizontalStack=0;resizeParent=1;resizeParentMax=0;resizeLast=0;collapsible=1;marginBottom=0;strokeWidth=2;" parent="1" vertex="1">
                    <mxGeometry x="250" y="10" width="110" height="86" as="geometry"/>
                </mxCell>
                <mxCell id="37" value="&lt;div&gt;&lt;font style=&quot;font-size: 12px&quot;&gt;&amp;nbsp;- id: Long&lt;/font&gt;&lt;/div&gt;&lt;div&gt;&lt;font style=&quot;font-size: 12px&quot;&gt;&amp;nbsp;- name: string&lt;/font&gt;&lt;/div&gt;&lt;div&gt;&lt;font style=&quot;font-size: 12px&quot;&gt;&lt;span&gt;&amp;nbsp;- genre: string&lt;/span&gt;&lt;br&gt;&lt;/font&gt;&lt;/div&gt;&lt;div&gt;&lt;font style=&quot;font-size: 12px&quot;&gt;&amp;nbsp;- synopsis: string&lt;/font&gt;&lt;/div&gt;" style="text;html=1;align=left;verticalAlign=middle;resizable=0;points=[];autosize=1;strokeColor=none;fillColor=none;strokeWidth=2;" parent="36" vertex="1">
                    <mxGeometry y="26" width="110" height="60" as="geometry"/>
                </mxCell>
                <mxCell id="38" value="Room" style="swimlane;fontStyle=0;childLayout=stackLayout;horizontal=1;startSize=26;fillColor=none;horizontalStack=0;resizeParent=1;resizeParentMax=0;resizeLast=0;collapsible=1;marginBottom=0;strokeWidth=2;" parent="1" vertex="1">
                    <mxGeometry x="450" y="10" width="110" height="76" as="geometry"/>
                </mxCell>
                <mxCell id="39" value="&lt;div&gt;&lt;font style=&quot;font-size: 12px&quot;&gt;&amp;nbsp;- id: Long&lt;br&gt;&lt;/font&gt;&lt;/div&gt;&lt;div&gt;&lt;font style=&quot;font-size: 12px&quot;&gt;&amp;nbsp;- number: Integer&lt;/font&gt;&lt;/div&gt;&lt;div&gt;&lt;font style=&quot;font-size: 12px&quot;&gt;&amp;nbsp;- seats: Integer&lt;/font&gt;&lt;/div&gt;" style="text;html=1;align=left;verticalAlign=middle;resizable=0;points=[];autosize=1;strokeColor=none;fillColor=none;strokeWidth=2;" parent="38" vertex="1">
                    <mxGeometry y="26" width="110" height="50" as="geometry"/>
                </mxCell>
                <mxCell id="42" style="edgeStyle=orthogonalEdgeStyle;html=1;startArrow=none;startFill=0;endArrow=none;endFill=0;entryX=0.5;entryY=1;entryDx=0;entryDy=0;" parent="1" source="40" target="36" edge="1">
                    <mxGeometry relative="1" as="geometry">
                        <mxPoint x="305" y="100" as="targetPoint"/>
                    </mxGeometry>
                </mxCell>
                <mxCell id="44" value="1..*" style="edgeLabel;html=1;align=center;verticalAlign=middle;resizable=0;points=[];" parent="42" vertex="1" connectable="0">
                    <mxGeometry x="0.9064" relative="1" as="geometry">
                        <mxPoint x="-10" y="3" as="offset"/>
                    </mxGeometry>
                </mxCell>
                <mxCell id="40" value="Session" style="swimlane;fontStyle=0;childLayout=stackLayout;horizontal=1;startSize=26;fillColor=none;horizontalStack=0;resizeParent=1;resizeParentMax=0;resizeLast=0;collapsible=1;marginBottom=0;strokeWidth=2;" parent="1" vertex="1">
                    <mxGeometry x="235" y="210" width="140" height="86" as="geometry"/>
                </mxCell>
                <mxCell id="41" value="&lt;div&gt;&lt;font style=&quot;font-size: 12px&quot;&gt;&amp;nbsp;- id: Long&lt;br&gt;&lt;/font&gt;&lt;/div&gt;&lt;div&gt;&lt;font style=&quot;font-size: 12px&quot;&gt;&amp;nbsp;- hour: LocalDateTime&lt;/font&gt;&lt;/div&gt;&lt;div&gt;&lt;font style=&quot;font-size: 12px&quot;&gt;&amp;nbsp;- movie: Movie&lt;/font&gt;&lt;/div&gt;&lt;div&gt;&lt;font style=&quot;font-size: 12px&quot;&gt;- room: Room&lt;br&gt;&lt;/font&gt;&lt;/div&gt;" style="text;html=1;align=left;verticalAlign=middle;resizable=0;points=[];autosize=1;strokeColor=none;fillColor=none;strokeWidth=2;" parent="40" vertex="1">
                    <mxGeometry y="26" width="140" height="60" as="geometry"/>
                </mxCell>
                <mxCell id="45" value="*..1" style="edgeLabel;html=1;align=center;verticalAlign=middle;resizable=0;points=[];" parent="1" vertex="1" connectable="0">
                    <mxGeometry x="314" y="142.00333333333333" as="geometry">
                        <mxPoint x="-20" y="59" as="offset"/>
                    </mxGeometry>
                </mxCell>
                <mxCell id="46" style="edgeStyle=orthogonalEdgeStyle;html=1;startArrow=none;startFill=0;endArrow=none;endFill=0;" parent="1" source="41" target="39" edge="1">
                    <mxGeometry relative="1" as="geometry"/>
                </mxCell>
                <mxCell id="47" value="*..1" style="edgeLabel;html=1;align=center;verticalAlign=middle;resizable=0;points=[];" parent="1" vertex="1" connectable="0">
                    <mxGeometry x="405" y="198.00333333333333" as="geometry">
                        <mxPoint x="-20" y="59" as="offset"/>
                    </mxGeometry>
                </mxCell>
                <mxCell id="48" value="1..*" style="edgeLabel;html=1;align=center;verticalAlign=middle;resizable=0;points=[];" parent="1" vertex="1" connectable="0">
                    <mxGeometry x="325" y="105.99999999999999" as="geometry">
                        <mxPoint x="169" y="-12" as="offset"/>
                    </mxGeometry>
                </mxCell>
            </root>
        </mxGraphModel>
    </diagram>
</mxfile>